<svg xmlns="http://www.w3.org/2000/svg" version="1.1" xmlns:xlink="http://www.w3.org/1999/xlink" xmlns:svgjs="http://svgjs.com/svgjs" width="1440" height="560" preserveAspectRatio="none" viewBox="0 0 1440 560"><g mask="url(&quot;#SvgjsMask1000&quot;)" fill="none"><rect width="1440" height="560" x="0" y="0" fill="#0e2a47"></rect><path d="M 0,148 C 57.6,136.4 172.8,65.4 288,90 C 403.2,114.6 460.8,266 576,271 C 691.2,276 748.8,141 864,115 C 979.2,89 1036.8,146 1152,141 C 1267.2,136 1382.4,100.2 1440,90L1440 560L0 560z" fill="#184a7e"></path><path d="M 0,454 C 96,425.2 288,289 480,310 C 672,331 768,540.6 960,559 C 1152,577.4 1344,433.4 1440,402L1440 560L0 560z" fill="#2264ab"></path></g><defs><mask id="SvgjsMask1000"><rect width="1440" height="560" fill="#ffffff"></rect></mask></defs></svg>